<svg xmlns="http://www.w3.org/2000/svg" viewBox="0 0 500 500"><title>no-search</title><g id="BACKGROUND"><rect width="500" height="500" style="fill:#fff"/></g><g id="OBJECT"><ellipse cx="249.15" cy="420.58" rx="236.18" ry="30.65" style="fill:#f5f5f5"/><path d="M439.88,339.76,203,304.83a13,13,0,0,1-10.95-14.74l25.32-171.66a13,13,0,0,1,14.74-11L469,142.4a13,13,0,0,1,11,14.74L454.62,328.81A13,13,0,0,1,439.88,339.76Z" style="fill:#f5f5f5"/><path d="M428.27,323.25,190.74,353.08a13,13,0,0,1-14.5-11.26L154.61,169.65a13,13,0,0,1,11.27-14.5l237.53-29.83a13,13,0,0,1,14.5,11.26l21.63,172.17A13,13,0,0,1,428.27,323.25Z" style="fill:#f5f5f5"/><path d="M195.69,339.72h0a2,2,0,0,1-2.21-1.71l-20-159.26a2,2,0,0,1,1.72-2.2h0a2,2,0,0,1,2.2,1.71l20,159.26A2,2,0,0,1,195.69,339.72Z" style="fill:#d6d6d6"/><path d="M220.34,336.08h0a2,2,0,0,1-2.2-1.71l-20-159.26a2,2,0,0,1,1.71-2.2h0a2,2,0,0,1,2.2,1.71l20,159.25A2,2,0,0,1,220.34,336.08Z" style="fill:#d6d6d6"/><path d="M245,332.44h0a2,2,0,0,1-2.2-1.72l-20-159.25a2,2,0,0,1,1.71-2.2h0a2,2,0,0,1,2.2,1.71l20,159.25A2,2,0,0,1,245,332.44Z" style="fill:#d6d6d6"/><path d="M269.64,328.79h0a2,2,0,0,1-2.2-1.71l-20-159.25a2,2,0,0,1,1.71-2.21h0a2,2,0,0,1,2.21,1.71l20,159.26A2,2,0,0,1,269.64,328.79Z" style="fill:#d6d6d6"/><path d="M294.3,325.15h0a2,2,0,0,1-2.21-1.71l-20-159.26a2,2,0,0,1,1.71-2.2h0a2,2,0,0,1,2.21,1.71L296,323A2,2,0,0,1,294.3,325.15Z" style="fill:#d6d6d6"/><path d="M319,321.51h0a2,2,0,0,1-2.2-1.71l-20-159.26a2,2,0,0,1,1.71-2.2h0a2,2,0,0,1,2.2,1.71l20,159.25A2,2,0,0,1,319,321.51Z" style="fill:#d6d6d6"/><path d="M343.6,317.87h0a2,2,0,0,1-2.2-1.72l-20-159.25a2,2,0,0,1,1.71-2.2h0a2,2,0,0,1,2.2,1.71l20,159.25A2,2,0,0,1,343.6,317.87Z" style="fill:#d6d6d6"/><path d="M368.25,314.22h0a2,2,0,0,1-2.2-1.71l-20-159.25a2,2,0,0,1,1.71-2.21h0a2,2,0,0,1,2.21,1.72L370,312A2,2,0,0,1,368.25,314.22Z" style="fill:#d6d6d6"/><path d="M392.91,310.58h0a2,2,0,0,1-2.21-1.71l-20-159.26a2,2,0,0,1,1.71-2.2h0a2,2,0,0,1,2.21,1.71l20,159.26A2,2,0,0,1,392.91,310.58Z" style="fill:#d6d6d6"/><path d="M417.56,306.94h0a2,2,0,0,1-2.21-1.71L395.35,146a2,2,0,0,1,1.72-2.2h0a2,2,0,0,1,2.2,1.71l20,159.26A2,2,0,0,1,417.56,306.94Z" style="fill:#d6d6d6"/><path d="M212.58,149.28l187.75-24.5a17,17,0,0,1,19.13,15l9,80.56" style="fill:none;stroke:#262626;stroke-linecap:round;stroke-linejoin:round;stroke-width:0.414687px"/><path d="M460.48,415.2,221.69,402.79A13.12,13.12,0,0,1,209.26,389l9.22-177.46a13.14,13.14,0,0,1,13.8-12.44l238.78,12.41a13.14,13.14,0,0,1,12.43,13.8l-9.22,177.46A13.13,13.13,0,0,1,460.48,415.2Z" style="fill:#f5f5f5"/><path d="M460.48,415.2,221.69,402.79A13.12,13.12,0,0,1,209.26,389l9.22-177.46a13.14,13.14,0,0,1,13.8-12.44l238.78,12.41a13.14,13.14,0,0,1,12.43,13.8l-9.22,177.46A13.13,13.13,0,0,1,460.48,415.2Z" style="fill:none;stroke:#262626;stroke-linecap:round;stroke-linejoin:round;stroke-width:0.414687px"/><path d="M261,220.33l-26.34-34.08A14.89,14.89,0,0,0,223,180.37H155a11.7,11.7,0,0,0-11.85,13.23l2.8,26.73.11,1,19.36,184.82A15,15,0,0,0,180,419.38h270.7a11.69,11.69,0,0,0,11.85-13.23L444.48,233.56a15,15,0,0,0-14.62-13.23Z" style="fill:#ed4e74"/><path d="M294.77,344.34a60,60,0,0,1-2.31-13.79A17.8,17.8,0,0,1,295,321a16.38,16.38,0,0,1,3.76-4.5,31.86,31.86,0,0,0,4-4,14.82,14.82,0,0,0,2.68-4.72,11.84,11.84,0,0,0-.19-6.82q-1.86-7.11-6.52-9.95a19.06,19.06,0,0,0-10-2.83q-7.69,0-9.47,4.28T278.68,304H260a33.1,33.1,0,0,1-1.06-12.92,19.88,19.88,0,0,1,4-9.88,20.43,20.43,0,0,1,8.67-6.24,34.23,34.23,0,0,1,12.72-2.18q15.68,0,26.43,6.39t14.51,20.76a31.7,31.7,0,0,1,1.19,8.13,17.39,17.39,0,0,1-1.18,6.32,19.21,19.21,0,0,1-3.26,5.3,63.69,63.69,0,0,1-4.91,5.08,29.11,29.11,0,0,0-4,4.58,11.44,11.44,0,0,0-1.82,4.42,15.27,15.27,0,0,0,0,4.87,55.68,55.68,0,0,0,1.21,5.73Zm6.76,28-5-19h19.6l5,19Z" style="fill:#d92559"/><line x1="145.92" y1="220.33" x2="146.03" y2="221.33" style="fill:none;stroke:#262626;stroke-linecap:round;stroke-linejoin:round;stroke-width:0.46569000000000005px"/><path d="M143.12,193.6" style="fill:none;stroke:#262626;stroke-linecap:round;stroke-linejoin:round;stroke-width:0.46569000000000005px"/><path d="M462.56,406.15,444.48,233.56a15,15,0,0,0-14.62-13.23H261l-26.34-34.08A14.89,14.89,0,0,0,223,180.37H155" style="fill:none;stroke:#262626;stroke-linecap:round;stroke-linejoin:round;stroke-width:0.46569000000000005px"/><path d="M446.71,419.38" style="fill:none;stroke:#262626;stroke-linecap:round;stroke-linejoin:round;stroke-width:0.46569000000000005px"/><path d="M176,419.38" style="fill:none;stroke:#262626;stroke-linecap:round;stroke-linejoin:round;stroke-width:0.46569000000000005px"/><path d="M161.39,406.15" style="fill:none;stroke:#262626;stroke-linecap:round;stroke-linejoin:round;stroke-width:0.46569000000000005px"/><path d="M127.87,251.41v7.68s12.54,52.59,15,59.62-8.56,74.75-8.56,74.75H97.61l4.65-75.36L62.31,388.5,29.54,369.16s31.87-60,32.77-70.8S60,237.64,60,237.64Z" style="fill:#b7194b"/><path d="M79.73,241.65s3.71,52.61,1.08,61.86-33.69,76-33.69,76" style="fill:none;stroke:#262626;stroke-linecap:round;stroke-linejoin:round;stroke-width:0.414687px"/><path d="M102.24,317q-2.33,38.25-4.63,76.5h16.1l-5.77-89.95a29,29,0,0,1-5.7,13.45Z" style="fill:#991845"/><path d="M96.33,273.24l-5.94-4.34h2.89a2.66,2.66,0,0,0,2.53-3.47,1,1,0,0,0-1-.7c-1.84,0-3.38-.12-4.51-.2a20.94,20.94,0,0,1-5.27-.71c-1.93-.69-2.19-1.37-4.16-2.06a12,12,0,0,0-3.2-.64A46.47,46.47,0,0,1,67.2,248.55l-5.48,20.13c-.14,0,.18,1.84.09,1.91a64.93,64.93,0,0,0,8.28,3.19,12.88,12.88,0,0,0,1.46,3.46c1.15,1.86,2.43,2.84,4.86,4.7.48.37.11.06,6.1,3.35.57.31,1.62.89,2.38.47a2.31,2.31,0,0,0,.88-1.38,2.67,2.67,0,0,0,0-1.05,3.15,3.15,0,0,0,.63.4,2.79,2.79,0,0,0,3-.23,2.63,2.63,0,0,0,.58-2.14,3.15,3.15,0,0,0-.33-1.07l1.06.43A2.34,2.34,0,0,0,93,280.4a2.31,2.31,0,0,0,0-3.69l-.37-.28,2,.47a2.05,2.05,0,0,0,1.68-3.66Z" style="fill:#49081e"/><path d="M125.68,164.39s28.24,55.79,31.42,62.21S183.47,259,183.47,259l-14.65,9.64L150.05,252.8a110,110,0,0,1-12.12-12.73c-22.36-27.61-26.05-59.69-26.47-77.45Z" style="fill:#f7a99c"/><path d="M148,208.59a48.6,48.6,0,0,1-4.74,15.26,55.58,55.58,0,0,1-8.63,12,6.81,6.81,0,0,1-2.09-4,6.71,6.71,0,0,1,.69-4L145,201.78Z" style="fill:#ff7769"/><path d="M99,125.49a18.19,18.19,0,0,1-4.9,3.68,11.51,11.51,0,0,0-6.39,8.33,18,18,0,0,0,.62,9.5,18.19,18.19,0,0,0,2.19,4.36c.91,1.31,1.84,2.34,1.38,4.08-.62,2.33-3.77,3.07-5.36,4.62a10.94,10.94,0,0,0-3.11,7.4,8.9,8.9,0,0,0,1,4.79,11.66,11.66,0,0,0,4.52,3.92c1.87,1.09,3.68,2.27,5.59,3.27" style="fill:none;stroke:#262626;stroke-linecap:round;stroke-linejoin:round;stroke-width:0.414687px"/><path d="M129.9,127c1.81,1.83,3.73,3.87,4,6.44a8.7,8.7,0,0,1-.36,3.12c-.5,1.86-1.26,3.63-1.73,5.5a9.28,9.28,0,0,0-.19,4.41,9,9,0,0,0,1.9,3.52c2.43,3,5.22,5,5.78,9.07a20.84,20.84,0,0,1-.34,6.63,8.83,8.83,0,0,1-1.41,3.85c-1.55,2-4.46,2.71-6.82,3.19" style="fill:none;stroke:#262626;stroke-linecap:round;stroke-linejoin:round;stroke-width:0.414687px"/><path d="M112.06,122.53c-1.88,0-3.52,0-4.13.1-7.85.72-15.2,5.14-17.52,13a17.8,17.8,0,0,0-.52,8.32c.89,4.35,3.81,6,3.07,9.16-.15.65-.35.92-1.85,3.07-3.4,4.91-5.11,7.38-5.27,7.8-1.48,3.95,0,8.73,2.37,11.59a13.91,13.91,0,0,0,6.32,4.31c4.9,1.7,19.74,7.62,33.27-.46,3.35-2,8.86-5.29,10.32-11.47,1.8-7.61-3.6-15.12-4.43-16.28-2-2.76-2.42-2.11-3.52-4-2.28-4-1-8.42.14-12.58s.71-6.26,0-7.52c-1.88-3.29-7-4-11.08-4.57A60,60,0,0,0,112.06,122.53Z" style="fill:#262626"/><path d="M115.81,163.43a46.63,46.63,0,0,1,18.83,12.08c5.16,5.54,8.31,11.89,10.67,16.62,1.55,3.13,2.67,5.83,3.44,7.8l-16.47,35.89Z" style="fill:#ed4e74"/><path d="M101.81,163.23h14s18.61,13.66,22.68,25.58-10.68,65.13-10.68,65.13a211.55,211.55,0,0,1-79.73-13.31c2.59-12.21,5.31-22.46,7.57-30.27,6.36-22,10.24-28.83,15.82-34.39a44.31,44.31,0,0,1,11.91-8.51A43.28,43.28,0,0,1,101.81,163.23Z" style="fill:#ed4e74"/><path d="M127.8,179.41s.66,28.25-1.94,38.5-9.23,36-9.23,36h11.18s6.08-22.81,6.54-28.54,1.08-15.6.31-19.84-2.35-13.25-3.4-16.94A91.17,91.17,0,0,0,127.8,179.41Z" style="fill:#d92559"/><path d="M79.73,214.34a20.29,20.29,0,0,0-9.13,10.83c-3.56,10.46,4.13,23,4.57,23.56l-23.83-5.91s.61-17,2.52-23.23S65,203.26,65,203.26Z" style="fill:#d92559"/><path d="M108.84,170.21h0a7,7,0,0,1-7-7l-.06-15.07,14,0,0,15.07A7,7,0,0,1,108.84,170.21Z" style="fill:#f7a99c"/><path d="M115.8,159l-9.13-4.69a10.79,10.79,0,0,0,3.87,7,10.36,10.36,0,0,0,5.27,2.11Z" style="fill:#ff7769"/><path d="M101.41,143.49c0-.23-.64-.57-.83-.69a4.15,4.15,0,0,0-1-.47,4.09,4.09,0,0,0-2.14-.11,3.77,3.77,0,0,0-2.86,2.93,4.32,4.32,0,0,0,.41,2.47,6.28,6.28,0,0,0,2.55,2.75,7,7,0,0,0,3,.89,17.93,17.93,0,0,0,2.34-.12C102.4,148.59,101.9,146,101.41,143.49Z" style="fill:#f7a99c"/><path d="M99.49,143.64a18,18,0,0,0,6.5,11.24c1,.77,7.53,5.91,13.52,3.4,7.7-3.22,6.86-15.86,6.8-16.54-.18-2.32-.72-9.13-6.37-12.77a13.56,13.56,0,0,0-18.71,4.32A14.74,14.74,0,0,0,99.49,143.64Z" style="fill:#f7a99c"/><path d="M121.94,141.75a1.52,1.52,0,1,0,1.26-2A1.68,1.68,0,0,0,121.94,141.75Z" style="fill:#262626"/><path d="M113.05,142.86a1.51,1.51,0,1,0,1.25-2A1.66,1.66,0,0,0,113.05,142.86Z" style="fill:#262626"/><path d="M119.26,143.22l1.36,1.84a.72.72,0,0,1-.2,1l-1.25.77" style="fill:none;stroke:#262626;stroke-linecap:round;stroke-linejoin:round;stroke-width:0.7329629999999999px"/><path d="M110.07,147.51a2,2,0,1,0,1.75-2.26A2,2,0,0,0,110.07,147.51Z" style="fill:#ff7769"/><path d="M100.47,148.56a3.58,3.58,0,0,0-3.53-3.73" style="fill:none;stroke:#262626;stroke-linecap:round;stroke-linejoin:round;stroke-width:0.7329629999999999px"/><path d="M99.41,146a1.73,1.73,0,0,0-1.45.49,1.66,1.66,0,0,0-.41,1.23" style="fill:none;stroke:#262626;stroke-linecap:round;stroke-linejoin:round;stroke-width:0.7329629999999999px"/><path d="M99.31,142.26a3.15,3.15,0,0,1,1.75.83,4.53,4.53,0,0,1,1,2,19.3,19.3,0,0,0,10.3-4.5,18.89,18.89,0,0,0,4.25-5.36,13.62,13.62,0,0,0,3.72,2.39c2.28,1,5.14,1.46,5.52.69a4,4,0,0,0-.16-1.38,9,9,0,0,0-.26-1.16,13.59,13.59,0,0,0-4.52-6.3,12.91,12.91,0,0,0-2.93-1.73,14.22,14.22,0,0,0-11.89.7,15.67,15.67,0,0,0-6.39,7,12.49,12.49,0,0,0-.88,3.73,6.14,6.14,0,0,0,.21,2.35A5.07,5.07,0,0,0,99.31,142.26Z" style="fill:#262626"/><path d="M125.26,144.32a2,2,0,0,1,1.08.16,27.07,27.07,0,0,1-.38,3.8l-.19.05a2,2,0,0,1-.51-4Z" style="fill:#ff7769"/><line x1="119.97" y1="149.6" x2="116.3" y2="151.1" style="fill:none;stroke:#262626;stroke-linecap:round;stroke-linejoin:round;stroke-width:0.7329629999999999px"/><path d="M128.3,259.48,68.64,275.35A8.48,8.48,0,1,0,73,291.75L132.09,276Z" style="fill:#49081e"/><path d="M62.62,283.73h0a8.48,8.48,0,0,1,6-10.38l117-31.12L190,258.62,73,289.75A8.49,8.49,0,0,1,62.62,283.73Z" style="fill:#991845"/><path d="M96.33,273.24l-5.94-4.34h2.89a2.66,2.66,0,0,0,2.53-3.47,1,1,0,0,0-1-.7c-1.84,0-3.38-.12-4.51-.2a20.94,20.94,0,0,1-5.27-.71c-1.93-.69-2.19-1.37-4.16-2.06a12,12,0,0,0-3.2-.64c-.57-.49-1.13-1-1.68-1.51L68.6,273.27l1.49.51a12.88,12.88,0,0,0,1.46,3.46c1.15,1.86,2.43,2.84,4.86,4.7.48.37.11.06,6.1,3.35.57.31,1.62.89,2.38.47a2.31,2.31,0,0,0,.88-1.38,2.67,2.67,0,0,0,0-1.05,3.15,3.15,0,0,0,.63.4,2.79,2.79,0,0,0,3-.23,2.63,2.63,0,0,0,.58-2.14,3.15,3.15,0,0,0-.33-1.07l1.06.43A2.34,2.34,0,0,0,93,280.4a2.31,2.31,0,0,0,0-3.69l-.37-.28,2,.47a2.05,2.05,0,0,0,1.68-3.66Z" style="fill:#49081e"/><path d="M80.64,172.68c-26.19,11.22-44,32-44,53.28,0,13.17,6.9,24.87,9.17,28.73,8.79,14.94,26.15,16.78,32.38,20.24l7.08-10.15c-15.33-9.8-24.76-23.49-22-40.66C66.69,202.2,86.15,192.31,88,191.41Z" style="fill:#f7a99c"/><path d="M51.88,192.12l19.43,13.26-3.52,5.4A42.1,42.1,0,0,1,47.55,197.1Z" style="fill:#ff7769"/><path d="M48.08,190.49l31.65,23.85C87.4,198.57,93.35,187,97.61,179c1.86-3.52,6.59-12.42,3.79-15.25-.72-.72-2.89-.86-7.23-1.15a40.46,40.46,0,0,0-8.25,0,37.12,37.12,0,0,0-6.81,1.65C73.77,166.06,61.64,175.42,48.08,190.49Z" style="fill:#ed4e74"/><path d="M105,393.46V417.8h39l-1-7s-12.24-6.87-14.14-8.43a20.56,20.56,0,0,1-4.35-5.58,8.69,8.69,0,0,1,0-3.33Z" style="fill:#f7a99c"/><path d="M103,402.64a3.68,3.68,0,0,1,2,0c2,.56,2.52,2.87,3.39,4.11l22.37.25-.14-3.4,3.5-1.13a23.87,23.87,0,0,0,6.6,5.25c2.76,1.47,6.33,2.63,7.78,5.11a5.61,5.61,0,0,1,.75,2.65,2.63,2.63,0,0,1-.61,2.11,2.1,2.1,0,0,1-1.36.51l-43.33-.27a.92.92,0,0,1-.92-.92Z" style="fill:#b7194b"/><path d="M103,417h46a0,0,0,0,1,0,0v1.91a1.72,1.72,0,0,1-1.72,1.72H104.7a1.72,1.72,0,0,1-1.72-1.72V417A0,0,0,0,1,103,417Z" style="fill:#5d1113"/><polygon points="104.95 393.46 124.46 393.46 124.29 395.89 104.95 395.89 104.95 393.46" style="fill:#ff7769"/><path d="M36.09,372.71,23.5,393.52l33.38,20.2,2.75-6.52S52.72,395,51.9,392.67a20.53,20.53,0,0,1-.84-7,8.74,8.74,0,0,1,1.72-2.85Z" style="fill:#f7a99c"/><path d="M29.66,379.54a3.63,3.63,0,0,1,1.7,1c1.42,1.52.67,3.76.77,5.27l19,11.8c.55-1,1.1-2,1.64-3l3.58.84a23.87,23.87,0,0,0,2.93,7.92c1.6,2.68,4.05,5.52,4,8.4a5.81,5.81,0,0,1-.73,2.66A2.67,2.67,0,0,1,61,415.91a2.11,2.11,0,0,1-1.43-.27L22.6,393a.91.91,0,0,1-.31-1.26Z" style="fill:#b7194b"/><path d="M18,403.43H64a0,0,0,0,1,0,0v1.91a1.72,1.72,0,0,1-1.72,1.72H19.71A1.72,1.72,0,0,1,18,405.34v-1.91A0,0,0,0,1,18,403.43Z" transform="translate(215.7 37.3) rotate(31.18)" style="fill:#5d1113"/><polygon points="36.09 372.71 52.78 382.8 51.38 384.8 34.84 374.79 36.09 372.71" style="fill:#ff7769"/><path d="M94.53,179.87a59.72,59.72,0,0,1-4.59,18.32,60.2,60.2,0,0,1-10.21,16.15L48.08,190.49" style="fill:none;stroke:#262626;stroke-linecap:round;stroke-linejoin:round;stroke-width:0.414687px"/><path d="M127.7,178.47A91.75,91.75,0,0,1,132,191.42a96.16,96.16,0,0,1,.69,43.14" style="fill:none;stroke:#262626;stroke-linecap:round;stroke-linejoin:round;stroke-width:0.414687px"/><path d="M85.25,166.61s-7.77.54-13,4.79S59.71,183,59.71,183" style="fill:none;stroke:#fff;stroke-linecap:round;stroke-linejoin:round;stroke-width:0.414687px"/><path d="M70.09,207.07A41.37,41.37,0,0,0,64.69,218a39.63,39.63,0,0,0-1.81,8.87A29.23,29.23,0,0,0,63.7,238c.56,1.89,1.94,5.66,1.94,5.66h0" style="fill:none;stroke:#262626;stroke-linecap:round;stroke-linejoin:round;stroke-width:0.414687px"/><path d="M69.62,269.29a13.3,13.3,0,0,0,1.87,6c1.15,1.87,2.43,2.85,4.86,4.7.48.37.11.07,6.11,3.36.56.31,1.62.89,2.37.47a2.37,2.37,0,0,0,.88-1.38,2.67,2.67,0,0,0,0-1.05,3.15,3.15,0,0,0,.63.4,2.79,2.79,0,0,0,3-.23,2.63,2.63,0,0,0,.58-2.14,3.07,3.07,0,0,0-.33-1.07l1.07.43a2.32,2.32,0,0,0,2.27-.32h0a2.32,2.32,0,0,0,0-3.7l-.37-.27,2,.47a2,2,0,0,0,2.08-.75h0a2.05,2.05,0,0,0-.41-2.92L90.34,267h2.88a2.66,2.66,0,0,0,2.53-3.47h0a1,1,0,0,0-.94-.7c-1.85,0-3.38-.12-4.52-.2a20.94,20.94,0,0,1-5.27-.71c-1.93-.69-2.19-1.38-4.16-2.06a12.22,12.22,0,0,0-4.15-.67Z" style="fill:#f7a99c"/><path d="M85.73,281.39A30.31,30.31,0,0,0,78,274.93" style="fill:none;stroke:#262626;stroke-linecap:round;stroke-linejoin:round;stroke-width:0.414687px"/><path d="M89.61,278.35a32,32,0,0,0-3.87-3.84,31.08,31.08,0,0,0-4.93-3.37" style="fill:none;stroke:#262626;stroke-linecap:round;stroke-linejoin:round;stroke-width:0.414687px"/><path d="M92.55,274.49a32.18,32.18,0,0,0-5-4.05,30.53,30.53,0,0,0-3.79-2.16" style="fill:none;stroke:#262626;stroke-linecap:round;stroke-linejoin:round;stroke-width:0.414687px"/><path d="M80.81,355.91,105,312a23.77,23.77,0,0,0,2.92-12.49l-.82-18.78" style="fill:none;stroke:#262626;stroke-linecap:round;stroke-linejoin:round;stroke-width:0.414687px"/><path d="M168.38,268.94h0a2.78,2.78,0,0,1-3.79-1l-4.19-7.27a2.77,2.77,0,0,1,1-3.79h0a2.78,2.78,0,0,1,3.79,1l4.2,7.27A2.78,2.78,0,0,1,168.38,268.94Z" style="fill:#f7a99c"/><path d="M172.65,267.54h0a2.78,2.78,0,0,1-3.79-1l-5.15-8.93a2.78,2.78,0,0,1,1-3.79h0a2.78,2.78,0,0,1,3.79,1l5.16,8.92A2.78,2.78,0,0,1,172.65,267.54Z" style="fill:#f7a99c"/><path d="M176.85,265.22h0a2.77,2.77,0,0,1-3.79-1l-5.41-9.36a2.78,2.78,0,0,1,1-3.79h0a2.78,2.78,0,0,1,3.79,1l5.4,9.36A2.77,2.77,0,0,1,176.85,265.22Z" style="fill:#f7a99c"/><path d="M179.54,263.72h0A2.78,2.78,0,0,1,176,262l-3.52-10.22a2.78,2.78,0,0,1,1.72-3.53h0a2.76,2.76,0,0,1,3.52,1.72l3.53,10.22A2.78,2.78,0,0,1,179.54,263.72Z" style="fill:#f7a99c"/><path d="M164.42,254a3.64,3.64,0,0,0-.95,1.62c-.46,1.7.88,3.74,3.58,7.74.61.91,1.52,2.21,1.52,2.21h0" style="fill:none;stroke:#262626;stroke-linecap:round;stroke-linejoin:round;stroke-width:0.414687px"/><path d="M168.67,251.05a3.94,3.94,0,0,0-1.16,2c-.24,1.15.23,2,2.85,6.5l2.08,3.6h0" style="fill:none;stroke:#262626;stroke-linecap:round;stroke-linejoin:round;stroke-width:0.414687px"/><path d="M173.45,248.79a2.89,2.89,0,0,0-.89,1.5,2.84,2.84,0,0,0,.14,1.53c.45,1.33,1.45,4.36,2.83,8.37" style="fill:none;stroke:#262626;stroke-linecap:round;stroke-linejoin:round;stroke-width:0.414687px"/><circle cx="241.79" cy="228.15" r="58.1" transform="translate(-67.19 105.48) rotate(-21.68)" style="fill:#cdebf5;opacity:0.5"/><path d="M241.79,163.24a64.91,64.91,0,1,0,64.91,64.91A64.92,64.92,0,0,0,241.79,163.24Zm0,119.28a54.37,54.37,0,1,1,54.37-54.37A54.38,54.38,0,0,1,241.79,282.52Z" style="fill:#991845"/><path d="M253.26,266.49a3.62,3.62,0,0,1,2.2-6.31,25.37,25.37,0,0,0,10.36-2.92,24.36,24.36,0,0,0,6.87-5.46,19.83,19.83,0,0,0,4.82-9c1.32-6.24-1.44-11.64-2.68-13.67a3.62,3.62,0,0,1,6.17-3.78,26.24,26.24,0,0,1,3.59,19,26.91,26.91,0,0,1-6.41,12.2,31.64,31.64,0,0,1-8.94,7.11,32.74,32.74,0,0,1-13.34,3.77A3.64,3.64,0,0,1,253.26,266.49Z" style="fill:#fff"/><path d="M207,179.54a59.95,59.95,0,0,1,72.23.33" style="fill:none;stroke:#262626;stroke-linecap:round;stroke-linejoin:round;stroke-width:0.414687px"/><path d="M143.2,96.44a33.19,33.19,0,0,1,2.22-7.56,13,13,0,0,1,3.87-4.81,13.92,13.92,0,0,1,3.24-2,25.07,25.07,0,0,0,3.27-1.68,12.12,12.12,0,0,0,2.7-2.22,7.28,7.28,0,0,0,1.63-3.64q.76-4-1.12-6A8.75,8.75,0,0,0,154.12,66c-2.87-.55-5-.14-6.38,1.25a14.25,14.25,0,0,0-3.28,6.06l-10.46-2a19.51,19.51,0,0,1,2.69-7,15.58,15.58,0,0,1,4.75-4.81,16.61,16.61,0,0,1,6.44-2.37,22.11,22.11,0,0,1,7.66.21q8.76,1.7,13.14,6.24t2.84,12.58a17.72,17.72,0,0,1-1.4,4.44,12.34,12.34,0,0,1-2.27,3.23,15.68,15.68,0,0,1-3.16,2.46c-1.21.72-2.55,1.44-4,2.16a24.53,24.53,0,0,0-3.37,2,8.72,8.72,0,0,0-2.14,2.15,9.37,9.37,0,0,0-1.26,2.58,28.86,28.86,0,0,0-.78,3.17ZM139.86,112l2-10.63,11,2.11-2.05,10.63Z" style="fill:#991845"/><path d="M54.74,130.77a27.17,27.17,0,0,1-.19-6.29,10.53,10.53,0,0,1,1.75-4.61,11.2,11.2,0,0,1,2-2.31,21.36,21.36,0,0,0,2.07-2.08,10.41,10.41,0,0,0,1.5-2.35,5.91,5.91,0,0,0,.33-3.17q-.41-3.21-2.33-4.26a6.93,6.93,0,0,0-4.35-.75c-2.31.29-3.83,1.13-4.54,2.53a11.23,11.23,0,0,0-1,5.41L41.53,114a15.64,15.64,0,0,1,.31-6,12.64,12.64,0,0,1,2.42-4.83,13.28,13.28,0,0,1,4.29-3.39A17.65,17.65,0,0,1,54.42,98c4.71-.59,8.56-.1,11.52,1.48s4.73,4.53,5.27,8.85a14.13,14.13,0,0,1,0,3.72,10,10,0,0,1-.92,3,12.67,12.67,0,0,1-1.8,2.65c-.73.84-1.58,1.73-2.52,2.64a19.78,19.78,0,0,0-2.07,2.36,7.21,7.21,0,0,0-1.09,2.16,7.54,7.54,0,0,0-.31,2.27,21.36,21.36,0,0,0,.19,2.6Zm1.33,12.67L55,134.87l8.84-1.11,1.08,8.57Z" style="fill:#991845"/></g></svg>
