<svg id="OBJECTS" xmlns="http://www.w3.org/2000/svg" viewBox="0 0 584.09 332.62"><title>upload-image</title><path d="M96.94,409.34,681,408.6S614.39,431,376.56,431,96.94,409.34,96.94,409.34Z" transform="translate(-96.94 -98.37)" style="fill:#e8e8e8"/><path d="M222.2,409h309s41.63-120.26-56.52-113.38c0,0-8.21-82.5-93.19-82.5s-97,89.76-97,89.76S182.52,273.85,222.2,409Z" transform="translate(-96.94 -98.37)" style="fill:#fffefd"/><path d="M531.16,409h-210c98.2-2.95,63.47-72.39,63.47-72.39,104.9-20.37,50.11-108.75,50.11-108.75,35.52,23.71,39.9,67.76,39.9,67.76C572.78,288.75,531.16,409,531.16,409Z" transform="translate(-96.94 -98.37)" style="fill:#e4f4f4"/><path d="M444.8,255.81l-8.63,5.78a44.75,44.75,0,0,0-4.26-5.09,63.57,63.57,0,0,0-6-5.57l-.36-.3a67.4,67.4,0,0,0-30.85-14l-.34,0a72.24,72.24,0,0,0-11.94-1h-.49q-3.93,0-7.51.26a90.53,90.53,0,0,0-10.46,1.3c-.95.17-1.89.36-2.8.57-1.54.33-3,.71-4.47,1.11a72.06,72.06,0,0,0-9.42,3.36,63.33,63.33,0,0,0-7.1,3.65l-1,.6a60.22,60.22,0,0,0-5.38,3.8,52.1,52.1,0,0,0-4.15,3.7c-.27.26-.53.52-.77.78a32.22,32.22,0,0,0-5,6.45l-9.18-4.86a41.87,41.87,0,0,1,7-9c1.18-1.21,2.52-2.49,4.05-3.79a63.65,63.65,0,0,1,6.69-5c1-.66,2-1.31,3.14-2s2.38-1.35,3.65-2a79.69,79.69,0,0,1,17.09-6.32c.44-.11.89-.22,1.36-.32,1.15-.27,2.33-.53,3.53-.76a98.68,98.68,0,0,1,10-1.41c1.78-.17,3.64-.29,5.53-.37l1.55-.06c1.22,0,2.46-.06,3.75-.06h1.34c1.53,0,3,.09,4.47.19,1,.07,2,.15,3,.25l.55,0a77.92,77.92,0,0,1,38,14.75c1.35,1,2.62,2,3.79,3a74.39,74.39,0,0,1,6,5.57A55.1,55.1,0,0,1,444.8,255.81Z" transform="translate(-96.94 -98.37)" style="fill:#272742"/><path d="M272.85,315.14a19.57,19.57,0,0,0-8.43-1.13,43.87,43.87,0,0,0-22.33,6.91,42.8,42.8,0,0,0-18.17,25.31,43.69,43.69,0,0,0-.79,17.78,2.51,2.51,0,0,0,3.06,1.76,2.56,2.56,0,0,0,1.77-3.06,38.64,38.64,0,0,1,5.62-26.38,37.75,37.75,0,0,1,21.55-15.86,37.07,37.07,0,0,1,11.5-1.46,10.37,10.37,0,0,1,3.72.46,2.6,2.6,0,0,0,3.42-.92A2.51,2.51,0,0,0,272.85,315.14Z" transform="translate(-96.94 -98.37)" style="fill:#e4f4f4"/><path d="M231.43,394.56a60.45,60.45,0,0,1-2.76-16.93,2.5,2.5,0,1,0-5,0,65,65,0,0,0,2.93,18.2,2.5,2.5,0,0,0,4.83-1.3Z" transform="translate(-96.94 -98.37)" style="fill:#e4f4f4"/><path d="M310.19,269.1a65.18,65.18,0,0,0-16.28,35.08,2.59,2.59,0,0,0,1.79,3.05c1.18.3,2.88-.45,3.05-1.79a60.69,60.69,0,0,1,14.95-32.78C315.85,270.28,312.35,266.71,310.19,269.1Z" transform="translate(-96.94 -98.37)" style="fill:#e4f4f4"/><path d="M395.12,327.5h-6.93v24.88a6.21,6.21,0,0,1-6.21,6.21h-5.14a6.21,6.21,0,0,1-6.21-6.21V327.5H363.7a3.46,3.46,0,0,1-2.9-5.32l15.71-24.42a3.45,3.45,0,0,1,5.8,0L398,322.18A3.45,3.45,0,0,1,395.12,327.5Z" transform="translate(-96.94 -98.37)" style="fill:#46c1b5"/><path d="M444.67,379.45H314.79V350.28a4.09,4.09,0,0,1,4.09-4.09h3.81a4.1,4.1,0,0,1,4.1,4.09v17.17H432.67V350.28a4.1,4.1,0,0,1,4.1-4.09h3.81a4.09,4.09,0,0,1,4.09,4.09Z" transform="translate(-96.94 -98.37)" style="fill:#46c1b5"/><path d="M395.12,329.6h-6.93v24.88a6.21,6.21,0,0,1-6.21,6.21h-5.14a6.21,6.21,0,0,1-6.21-6.21V329.6H363.7a3.45,3.45,0,0,1-2.9-5.31l15.71-24.43a3.45,3.45,0,0,1,5.8,0L398,324.29A3.45,3.45,0,0,1,395.12,329.6Z" transform="translate(-96.94 -98.37)" style="fill:#56d8cf"/><path d="M444.67,381.55H314.79V352.39a4.09,4.09,0,0,1,4.09-4.1h3.81a4.1,4.1,0,0,1,4.1,4.1v17.16H432.67V352.39a4.1,4.1,0,0,1,4.1-4.1h3.81a4.09,4.09,0,0,1,4.09,4.1Z" transform="translate(-96.94 -98.37)" style="fill:#56d8cf"/><path d="M366.58,141.59l-48.95,51.64a75.89,75.89,0,0,1,26.38.37c4.24.8,8.61,2.08,11.62,5.15,4,4.09,4.71,10.26,5,16q.36,6.17.47,12.33c0,1.48,0,3,0,4.44l.6,0c5-.17,10-.37,15-.55,7.09-.25,14.28-.49,21,1.55a23.91,23.91,0,0,1,12.93,9.06,67.6,67.6,0,0,1,14.81,9.09l.36.3,7.15-7.54L452.41,223Zm-2.2,29a16.49,16.49,0,1,1,.62,23.29A16.49,16.49,0,0,1,364.38,170.57Z" transform="translate(-96.94 -98.37)" style="fill:#ffc533"/><path d="M370.71,137.24l-5.08-4.82L297,204.83l35.4,33.57,7.8,7.4a63.33,63.33,0,0,1,7.1-3.65l-8.11-7.69-31.93-30.27,10.4-11,48.95-51.64L452.41,223l-19.35,20.42-7.15,7.54a63.57,63.57,0,0,1,6,5.57l7.15-7.54,23.43-24.71Z" transform="translate(-96.94 -98.37)" style="fill:#f6fafd"/><path d="M410.74,241.54a68.24,68.24,0,0,0-16-4.9l-.34,0a72.24,72.24,0,0,0-11.94-1h-.49q-3.93,0-7.51.26a90.53,90.53,0,0,0-10.46,1.3c-.95.17-1.89.36-2.8.57q0-3.09,0-6.18l.6,0c5-.17,10-.37,15-.55,7.09-.25,14.28-.49,21,1.55A23.91,23.91,0,0,1,410.74,241.54Z" transform="translate(-96.94 -98.37)" style="fill:#56d8cf"/><path d="M361.18,231.5q0,3.09,0,6.18c-1.54.33-3,.71-4.47,1.11a72.06,72.06,0,0,0-9.42,3.36l-8.11-7.69-31.93-30.27,10.4-11a75.89,75.89,0,0,1,26.38.37c4.24.8,8.61,2.08,11.62,5.15,4,4.09,4.71,10.26,5,16q.36,6.17.47,12.33C361.17,228.54,361.18,230,361.18,231.5Z" transform="translate(-96.94 -98.37)" style="fill:#38b2ac"/><path d="M387.7,169.92a16.5,16.5,0,1,1-23.32.65A16.48,16.48,0,0,1,387.7,169.92Z" transform="translate(-96.94 -98.37)" style="fill:#ff5331"/><path d="M443.41,132.94l-12.8,54.32c-1.59-2.57-3.14-5.13-4.73-7.69a30.61,30.61,0,0,0-5-6.75c-5.11-4.86-13-5.81-19.89-4.18s-13,5.46-18.95,9.24l-12.69,8-.51.31c-2.81-4.82-5.79-9.56-8.88-14.23s-6.87-9.76-12.4-11.28c-4.14-1.13-8.56,0-12.63,1.41a75.79,75.79,0,0,0-23,12.95l16.32-69.26Zm-70.34,6.58a16.49,16.49,0,1,0-19.85,12.26A16.48,16.48,0,0,0,373.07,139.52Z" transform="translate(-96.94 -98.37)" style="fill:#c7fffd"/><path d="M430.61,187.26l12.8-54.32L328.29,105.81,312,175.07l-3.47,14.71,70.3,16.56,44.82,10.56ZM452.76,129l-22.89,97.13L300,195.49l22.88-97.12Z" transform="translate(-96.94 -98.37)" style="fill:#f6fafd"/><path d="M430.61,187.26l-7,29.64L378.8,206.34l.3-1.27c-3.19-6.39-6.59-12.7-10.24-18.85l.51-.31,12.69-8c6-3.78,12.09-7.6,18.95-9.24s14.78-.68,19.89,4.18a30.61,30.61,0,0,1,5,6.75C427.47,182.13,429,184.69,430.61,187.26Z" transform="translate(-96.94 -98.37)" style="fill:#56d8cf"/><path d="M379.1,205.07l-.3,1.27-70.3-16.56L312,175.07a75.79,75.79,0,0,1,23-12.95c4.07-1.45,8.49-2.54,12.63-1.41,5.53,1.52,9.24,6.5,12.4,11.28s6.07,9.41,8.88,14.23C372.51,192.37,375.91,198.68,379.1,205.07Z" transform="translate(-96.94 -98.37)" style="fill:#38b2ac"/><path d="M360.79,119.67A16.5,16.5,0,1,1,341,132,16.48,16.48,0,0,1,360.79,119.67Z" transform="translate(-96.94 -98.37)" style="fill:#ffc533"/></svg>